<?xml version="1.0" encoding="utf-8"?>
<!-- Generator: Adobe Illustrator 23.1.0, SVG Export Plug-In . SVG Version: 6.00 Build 0)  -->
<svg version="1.1" xmlns="http://www.w3.org/2000/svg" xmlns:xlink="http://www.w3.org/1999/xlink" x="0px" y="0px"
	 viewBox="0 0 653 579" style="enable-background:new 0 0 653 579;" xml:space="preserve">
<style type="text/css">
	.st0{fill:#5D036B;}
	.st1{fill:#F7BA99;}
	.st2{fill:#FEFEFE;}
	.st3{fill:#F2F2F2;}
</style>
<g id="Layer_2">
</g>
<g id="Layer_1">
	<g>
		<g>
			<path class="st0" d="M81.51,158.39c2.78-1.05,4.79,1.35,7.41,0.38c-1.5-3.48-4.53-5.61-7.06-8.02c-2.62-2.49-2.88-4.9-0.4-7.15
				c6.24-5.68,12.9-10.79,21.96-10.93c17.3-0.26,33.55-5.52,49.86-10.38c18.78-5.6,38.17-7.8,57.43-10.78
				c5.36-0.83,6.76,3.27,8.83,6.35c7.69-9.71,19.07-7.16,28.96-9.16c1.02-0.21,1.61,0.66,1.82,1.53c1.15,4.69,3.95,3.63,6.34,1.46
				c7.48-6.77,15.71-6,24.1-2.53c4.64,1.92,8.68,2.38,12.57-1.48c1.67-1.66,4.09-1.79,6.43-1.85c11.4-0.26,22.73,0.68,34.22-0.32
				c8.08-0.7,16.08-3.36,24.4-2.14c2.72,0.4,5.18-0.01,5.44,3.74c0.17,2.43,2.15,3.5,4.17,2.51c3.39-1.65-1.07-2.77-0.36-4.88
				c5.2-1.81,11.02-2.88,16.83-3.21c22.14-1.27,44.29-2.21,66.44-3.28c3.05-0.15,5.95,0.33,8.71,1.68c4.32,2.11,8.74,3.64,13.7,2.57
				c1.33-0.29,3.04-0.43,3.92,0.88c1.78,2.65,3.33,4.27,7.08,2.51c2.49-1.17,5.99-0.05,7.29-3.81c0.45-1.3,2.12-1.08,3.3-1.18
				c9.47-0.78,18.94-1.44,28.41-2.28c2.38-0.21,2.57,0.87,2.49,2.74c-0.4,9.66,6.97,15.67,11.54,22.84c1.7,2.67,6.45,4.19,9.9,0.99
				c3.28-3.04,3.39-0.84,3.95,1.76c2.4,11.13,3.31,22.42,3.87,33.76c1.25,24.97,4.18,49.64,11.82,73.64
				c4.21,13.21,5.86,26.98,6.02,40.78c0.29,24.35,4.49,48.26,7.08,72.36c1.8,16.68,2.28,33.45-3.14,49.79
				c-1.38,4.16-1.61,8.56-1.5,12.95c0.12,4.49-1.7,7.23-6.55,7.83c-4.85,0.59-9.63,1.26-13.63,4.8c-2.51,2.23-6.05,1.39-9.18,0.88
				c-4.03-0.66-7.96-0.74-11.95,1.23c0.72,2.14,4.35,0.94,4.08,3.13c-0.28,2.32-2.53,3.6-4.45,4.89c-3.48,2.33-7.59,2.7-11.48,3.62
				c-17.28,4.09-34.31,9.02-50.94,15.18c-11.08,4.1-22.62,4.95-34.18,5.84c-39.99,3.08-80.07,5.16-119.94,9.59
				c-16.93,1.88-33.71,5.04-50.56,7.6c-12.73,1.93-25.61,2.54-38.42,2.48c-22.78-0.1-45.28,2.67-67.82,5.22
				c-4.87,0.55-9.47,0.25-13.49-2.96c-1.87-1.49-4.03-2.18-6.42-1.52c-1.61,0.44-3.65,0.77-4.5-0.45c-3.36-4.81-6.49-1.71-9.5,0.09
				c-2.51,1.5-4.03,1.22-5.51-1.33c-3.29-5.68-8.59-10.19-9.71-17.15c-0.31-1.94-1.96-3.57-4.01-3.73
				c-4.35-0.35-3.27-2.66-1.92-4.88c1.93-3.2,1.45-5.38-2.03-7.07c-1.54-0.75-3.27-1.85-4.05-3.26c-3.97-7.2-9.93-8.6-17.78-7.95
				c-4.68,0.39-9.61-1.6-14.58-1.31c-2.54,0.15-2.54-1.73-2.71-3.55c-1.65-17.63-0.63-35.22,0.57-52.82
				c1.24-18.22,4.03-36.27,1.92-54.77c-1.66-14.55,2.3-29.13,4.37-43.62c2.76-19.33,5.83-38.62,8.84-57.92
				c0.56-3.61-0.47-6.91-1.4-10.27c-0.71-2.57-1.4-5.23,0.53-7.5c4.74-5.58,4.47-11.95,2.83-18.36c-0.69-2.7-0.9-4.33,1.86-6.02
				c3.37-2.08,3.31-5.51,1.9-8.86C84.31,164.34,82.9,161.43,81.51,158.39z M449.89,186.71c-7.66-0.75-14.11-1.5-20.57-1.97
				c-3.26-0.24-4.86-1.76-6.01-4.73c-1.41-3.67-2.11-7.68-5.41-10.57c-7.13-6.23-13.77-13.02-21.08-19.02
				c-9.03-7.4-15.78-19.04-30.21-17.2c-0.16,0.02-0.35-0.12-0.51-0.1c-6.62,0.75-13.27-3.46-19.98,0.86
				c-12.39,7.99-25.05,15.56-37.65,23.21c-1.86,1.13-3.77,3.82-5.89,2.6c-2.09-1.2-0.61-4.14-0.59-6.29
				c0.07-6.51-0.55-7.54-7.16-8.36c-7.49-0.93-15.14-0.94-22.52-2.37c-9.31-1.8-15.87,1.5-20.6,8.99c-1.72,2.73-3.58,3.38-6.49,2.81
				c-2.23-0.43-4.54-0.46-6.8-0.79c-5.01-0.71-10.22,0.1-15.04-0.76c-11.97-2.15-23.96-3.2-36.07-3.38
				c-3.09-0.05-6.89,0.63-7.93,3.26c-2.27,5.73-6.5,4-10.45,3.82c-2.27-0.1-4.54-0.46-6.8-0.79c-2.72-0.4-3.7,0.71-3.89,3.41
				c-0.62,8.69-1.37,17.38-2.28,26.04c-0.67,6.41-0.42,12.88-6.84,17.6c-4.18,3.08-4.22,8.64-0.8,12.73
				c4.1,4.89,3.83,10.21,3.26,15.81c-1.3,12.83-2.64,25.65-3.9,38.49c-2.01,20.46-3.93,40.94-5.99,61.39
				c-0.43,4.24,1.08,6.52,5.48,6.92c15.39,1.42,30.78,2.9,46.17,4.38c24.13,2.32,48.25,4.84,72.4,6.85
				c4.71,0.39,7.57,2.02,10.39,5.61c20.5,26.04,47.56,39.68,80.83,40.65c28.29,0.82,52.59-9.28,73.48-27.89
				c1.47-1.31,2.71-2.58,4.98-2.32c8.03,0.9,16.07,1.69,24.11,2.47c12.59,1.23,25.18,2.44,37.78,3.6c3.87,0.36,6.97-0.62,7.41-5.18
				c1.77-18.39,3.51-36.78,5.31-55.16c1.6-16.3,3.35-32.59,4.85-48.89c0.27-2.95,1.53-4.65,3.9-6.26
				c10.01-6.79,9.57-14.27,1.96-21.53c-2.14-2.04-2.77-4.14-2.49-6.97c0.97-9.71,1.5-19.47,2.73-29.15
				c0.45-3.52,0.28-4.99-3.75-5.25c-7.61-0.49-15.19-1.53-23.36-2.4c0.94-1.21,1.41-1.9,1.96-2.52c6.67-7.6,2.92-20.2-7.42-20.35
				c-9.63-0.14-19.21-1.96-28.85-2.63c-8.4-0.58-12.62,3.74-12.9,12.15C446.55,180.66,447.82,183.25,449.89,186.71z M247.7,113.4
				c-3.89-0.92-6.87-0.03-9.84,0.45c-0.65,0.1-1.47,0.19-1.33,1.19c0.13,0.91,0.66,1.98,1.54,1.78
				C241.08,116.15,244.55,116.63,247.7,113.4z"/>
		</g>
		<g>
			<path class="st1" d="M449.89,187.25c-2.07-3.46-3.34-6.04-3.23-9.17c0.29-8.41,4.51-12.73,12.9-12.15
				c9.63,0.67,19.22,2.48,28.85,2.63c10.34,0.15,14.09,12.75,7.42,20.35c-0.55,0.62-1.02,1.31-1.96,2.52
				c8.17,0.87,15.75,1.91,23.36,2.4c4.02,0.26,4.19,1.73,3.75,5.25c-1.23,9.68-1.77,19.44-2.73,29.15
				c-0.28,2.83,0.35,4.93,2.49,6.97c7.61,7.26,8.06,14.73-1.96,21.53c-2.37,1.61-3.63,3.31-3.9,6.26
				c-1.5,16.31-3.25,32.59-4.85,48.89c-1.81,18.38-3.54,36.77-5.31,55.16c-0.44,4.56-3.54,5.53-7.41,5.18
				c-12.6-1.16-25.19-2.37-37.78-3.6c-8.04-0.78-16.08-1.57-24.11-2.47c-2.27-0.26-3.52,1.01-4.98,2.32
				c-20.89,18.62-45.19,28.72-73.48,27.89c-33.27-0.97-60.33-14.61-80.83-40.65c-2.83-3.59-5.69-5.22-10.39-5.61
				c-24.16-2.01-48.27-4.53-72.4-6.85c-15.39-1.48-30.78-2.97-46.17-4.38c-4.4-0.41-5.91-2.68-5.48-6.92
				c2.06-20.46,3.98-40.93,5.99-61.39c1.26-12.83,2.59-25.66,3.9-38.49c0.57-5.6,0.84-10.92-3.26-15.81
				c-3.43-4.09-3.39-9.65,0.8-12.73c6.42-4.72,6.17-11.19,6.84-17.6c0.91-8.67,1.66-17.35,2.28-26.04c0.19-2.7,1.18-3.81,3.89-3.41
				c2.26,0.33,4.53,0.69,6.8,0.79c3.94,0.17,8.18,1.9,10.45-3.82c1.04-2.63,4.84-3.31,7.93-3.26c12.11,0.18,24.1,1.24,36.07,3.38
				c4.82,0.86,10.03,0.05,15.04,0.76c2.26,0.32,4.57,0.35,6.8,0.79c2.91,0.56,4.76-0.09,6.49-2.81c4.73-7.49,11.3-10.79,20.6-8.99
				c7.38,1.43,15.03,1.44,22.52,2.37c6.61,0.82,7.23,1.85,7.16,8.36c-0.02,2.15-1.5,5.09,0.59,6.29c2.13,1.22,4.03-1.47,5.89-2.6
				c12.61-7.65,25.26-15.22,37.65-23.21c6.71-4.32,13.36-0.11,19.98-0.86c0.16-0.02,0.35,0.13,0.51,0.1
				c14.43-1.83,21.18,9.8,30.21,17.2c7.31,6,13.95,12.79,21.08,19.02c3.3,2.89,4,6.9,5.41,10.57c1.15,2.98,2.75,4.5,6.01,4.73
				C435.78,185.75,442.23,186.5,449.89,187.25z M430.72,360.81c2.1,0.62,3.29-0.7,4.43-2.08c24.51-29.74,31.61-62.95,18.73-99.39
				c-16.42-46.45-65.55-74.76-115.99-64.14c-46.07,9.7-80.16,49.46-80.07,98.02c0.06,31.77,13.4,58,38.34,78.21
				c38.09,30.88,96.56,28.48,131.88-5.39c1.56-1.5,3.14-2.84,2.74-5.28L430.72,360.81z M255.12,280.04
				c2.56-15.21,6.94-29.26,15.31-41.84c0.38-0.56,0.92-1.39,0.75-1.88c-2.21-6.42,0.4-12.68,0.7-18.99c0.13-2.8-0.8-3.2-3.1-3.4
				c-6.12-0.52-12.22-1.29-18.33-1.87c-29.01-2.77-58.02-5.47-87.01-8.32c-3.08-0.3-4.41,0.3-4.67,3.63
				c-0.83,10.59-1.95,21.15-3,31.73c-3.01,30.5-6.02,60.99-9.11,91.48c-0.27,2.7,0.6,3.78,3.33,3.98c8.4,0.64,16.79,1.41,25.18,2.21
				c16.6,1.58,33.19,3.24,49.79,4.81c13.11,1.24,26.22,2.42,39.34,3.57c2.15,0.19,4.78,0.6,2.74-3.07
				c-8.01-14.45-11.89-30.04-12.75-46.54c-8.91,5.41-15.79,5.1-20.29-0.74c-3.96-5.14-3.44-12.25,1.21-16.62
				C240.61,273.12,247.42,273.58,255.12,280.04z M442.03,230.47c15.03,20.42,22.16,42.32,21.26,66.39
				c-0.91,24.27-9.73,45.72-26.11,64.69c6.8,0.69,12.83,1.34,18.88,1.91c13.1,1.25,26.21,2.44,39.31,3.68
				c2.71,0.26,4.73,0.07,5.04-3.49c1.3-15.09,2.8-30.16,4.25-45.24c2.4-24.78,4.78-49.55,7.26-74.32c0.67-6.68,0.31-7.26-6.53-7.9
				c-11.18-1.04-22.36-2.14-33.54-3.16C462.3,232.17,452.76,231.39,442.03,230.47z M275.44,229.55c2.52-1.06,3.33-2.88,4.58-4.27
				c18.66-20.62,41.8-32.83,69.67-35.19c27.4-2.32,52.21,4.98,73.95,21.92c2.08,1.62,4.09,2.61,7.23,1.45
				c-5.42-12.7-10.79-25.34-16.26-37.93c-0.46-1.06-1.52-1.91-2.41-2.74c-11.02-10.27-22.11-20.47-33.06-30.82
				c-2.06-1.95-4.3-2.95-6.99-3.18c-5.6-0.49-11.21-0.84-16.81-1.39c-2.59-0.25-4.79,0.36-6.98,1.72
				c-13.11,8.15-26.25,16.26-39.43,24.3c-2.61,1.59-4.61,3.6-6.29,6.15c-7.51,11.38-15.16,22.68-22.75,34.01
				c-1.07,1.59-2.23,3.1-2.42,5.14C276.87,215.46,276.17,222.21,275.44,229.55z M290.65,178.32c-11.25-1.08-21.37-2.05-31.48-3.03
				c-16.94-1.64-33.87-3.32-50.81-4.9c-13.98-1.3-27.97-2.44-41.95-3.77c-2.98-0.28-4.07,0.68-4.17,3.65
				c-0.15,4.34-0.15,8.81-1.23,12.97c-1.56,5.99,1.34,6.5,6.16,6.83c12.78,0.87,25.53,2.17,38.28,3.41
				c22.7,2.21,45.38,4.49,68.07,6.76c1.74,0.17,2.96-0.22,3.97-1.8C281.61,192.01,285.85,185.64,290.65,178.32z M509.83,222.41
				c2.91,0.64,4.36-0.27,4.45-3.68c0.15-5.21,0.47-10.47,1.38-15.59c0.59-3.3-0.55-3.74-3.35-4.04c-27.2-2.9-54.38-5.9-81.56-8.93
				c-2.77-0.31-3.5,0.3-2.36,3.03c2.35,5.63,4.65,11.29,6.64,17.04c1.16,3.34,2.69,5.14,6.66,5.12c4.53-0.02,9.05,0.97,13.58,1.44
				C473.42,218.68,491.56,220.53,509.83,222.41z"/>
		</g>
		<g>
			<path class="st2" d="M234.94,404.38c0.59,9.26-9.25,21.86-18.38,24.82c-4.83,1.56-8.64-0.49-12.37-2.46
				c-3.15-1.66-5.38-4.02-7-6.75c-2.31,0.61-1.75,2.28-2.35,3.39c-1.33,2.45-2.8,4.8-6.53,4.84c-3.61,0.04-6.38-1.54-7.97-4.13
				c-2.87-4.65-1.44-9.64-1.21-14.5c0.1-2.07,0.82-4.12,0.25-6.24c-2.08-0.08-2.14,1.46-2.86,2.32c-2.81,3.36-5.26,6.91-8.22,10.18
				c-2.09,2.31-3.73,5.95-8.26,5.12c-4.94-0.9-7.31-4.34-8.38-8.11c-1.28-4.5,0.1-8.97,1.87-13.18c4.05-9.64,9.19-18.92,17.18-26.98
				c7.1-7.17,15.3-7.42,23.1-0.89c1.06,0.88,2.15,1.74,1.3,3.09c-0.61,0.97-1.67,1.69-2.99,1.87c-1.97,0.25-2.63-1.12-2.91-2.17
				c-1.09-4.06-4.03-3.19-6.94-1.61c-1.98,1.07-3.89,2.42-5.28,3.96c-9.61,10.59-16.29,22.11-17.21,35.37
				c-0.06,0.83-0.57,1.9,0.67,2.38c1.23,0.48,2.11-0.38,2.83-1.02c2.86-2.56,5.9-5,8.2-7.95c6.14-7.86,12.45-15.64,18.56-23.52
				c1.7-2.19,3.51-2.97,6.37-1.52c2.93,1.48,1.82,3.16,0.44,4.92c-8.28,10.55-9.74,22.4-10.42,34.36c-0.07,1.25-0.09,2.94,1.93,3.3
				c1.65,0.3,2.38-1.19,3.49-1.94c3.67-2.5,4.78-5.59,5.24-9.43c1.94-16.29,11.66-30.01,23.89-42.73c4.83-5.03,9.69-6.57,14.2-5.08
				c4.68,1.54,7.84,6.77,7.04,11.65c-0.79,4.86-5.02,8.11-11.94,9.11c-0.21-2.12,1.57-3.58,2.76-5.16c1.76-2.33,3.03-4.79,3.81-7.42
				c0.35-1.2,0.59-2.58-0.71-3.33c-1.57-0.91-3.32-0.1-4.6,0.71c-2.34,1.48-4.44,3.16-6.21,5.14
				c-10.53,11.78-16.62,25.04-20.52,38.97c-0.96,3.45-2.59,8.11,2.36,10.19c4.63,1.94,8.82-1.1,12.37-3.56
				C225.61,416.17,229.79,410.67,234.94,404.38z"/>
		</g>
		<g>
			<path class="st2" d="M247.7,113.95c-3.14,3.22-6.62,2.75-9.63,3.43c-0.88,0.2-1.4-0.87-1.54-1.78c-0.15-1,0.68-1.09,1.33-1.19
				C240.83,113.93,243.81,113.03,247.7,113.95z"/>
		</g>
		<g>
			<path class="st0" d="M255.12,280.04c-7.71-6.45-14.51-6.92-19.9-1.87c-4.66,4.37-5.17,11.48-1.21,16.62
				c4.51,5.85,11.38,6.15,20.29,0.74c0.85,16.51,4.74,32.1,12.75,46.54c2.03,3.67-0.6,3.26-2.74,3.07
				c-13.12-1.16-26.23-2.33-39.34-3.57c-16.6-1.57-33.19-3.23-49.79-4.81c-8.39-0.8-16.78-1.57-25.18-2.21
				c-2.73-0.21-3.6-1.28-3.33-3.98c3.08-30.49,6.09-60.98,9.11-91.48c1.04-10.57,2.17-21.14,3-31.73c0.26-3.33,1.59-3.93,4.67-3.63
				c29,2.84,58.01,5.55,87.01,8.32c6.11,0.58,12.21,1.35,18.33,1.87c2.3,0.2,3.24,0.6,3.1,3.4c-0.3,6.31-2.91,12.57-0.7,18.99
				c0.17,0.49-0.38,1.32-0.75,1.88C262.06,250.78,257.69,264.82,255.12,280.04z M218.94,272.12c-0.42,4.22,2.36,7.73,6.32,8.07
				c4.26,0.37,7.3-2.12,7.85-6.64c0.67-5.52,1.19-11.07,1.78-16.6c0.53-4.92-2.08-8.73-6.37-9.28c-4.12-0.53-7.49,2.72-8.01,7.82
				C219.95,261.04,219.46,266.58,218.94,272.12z"/>
		</g>
		<g>
			<path class="st0" d="M442.03,230.47c10.73,0.92,20.28,1.7,29.81,2.57c11.18,1.02,22.36,2.12,33.54,3.16
				c6.84,0.64,7.2,1.22,6.53,7.9c-2.48,24.77-4.86,49.54-7.26,74.32c-1.46,15.07-2.95,30.15-4.25,45.24
				c-0.31,3.56-2.33,3.75-5.04,3.49c-13.1-1.24-26.21-2.44-39.31-3.68c-6.04-0.57-12.08-1.22-18.88-1.91
				c16.38-18.97,25.2-40.42,26.11-64.69C464.19,272.78,457.06,250.89,442.03,230.47z"/>
		</g>
		<g>
			<path class="st0" d="M274.98,229.55c0.73-7.34,1.43-14.08,2.06-20.84c0.19-2.04,1.36-3.55,2.42-5.14
				c7.59-11.33,15.24-22.63,22.75-34.01c1.68-2.55,3.68-4.55,6.29-6.15c13.18-8.04,26.32-16.15,39.43-24.3
				c2.19-1.36,4.39-1.98,6.98-1.72c5.59,0.55,11.21,0.9,16.81,1.39c2.69,0.23,4.93,1.24,6.99,3.18
				c10.94,10.35,22.03,20.55,33.06,30.82c0.89,0.83,1.95,1.68,2.41,2.74c5.47,12.6,10.83,25.24,16.26,37.93
				c-3.14,1.17-5.15,0.18-7.23-1.45c-21.73-16.94-46.54-24.24-73.95-21.92c-27.88,2.36-51.02,14.56-69.67,35.19
				C278.31,226.66,277.5,228.49,274.98,229.55z"/>
		</g>
		<g>
			<path class="st0" d="M290.65,178.32c-4.8,7.32-9.04,13.69-13.17,20.14c-1.01,1.57-2.23,1.97-3.97,1.8
				c-22.69-2.28-45.38-4.56-68.07-6.76c-12.75-1.24-25.5-2.54-38.28-3.41c-4.82-0.33-7.71-0.84-6.16-6.83
				c1.08-4.16,1.08-8.63,1.23-12.97c0.1-2.97,1.19-3.94,4.17-3.65c13.97,1.33,27.97,2.46,41.95,3.77
				c16.94,1.58,33.88,3.26,50.81,4.9C269.29,176.27,279.4,177.23,290.65,178.32z"/>
		</g>
		<g>
			<path class="st0" d="M430.77,360.76c0.4,2.43-1.18,3.78-2.74,5.28c-35.32,33.87-93.79,36.27-131.88,5.39
				c-24.94-20.22-38.28-46.45-38.34-78.21c-0.09-48.56,34-88.32,80.07-98.02c50.44-10.62,99.57,17.68,115.99,64.14
				c12.88,36.44,5.79,69.65-18.73,99.39c-1.14,1.38-2.33,2.7-4.43,2.08c-0.98-2.39,1.14-3.43,2.26-4.81
				c17.57-21.59,24.77-45.98,21.25-73.67c-6.62-52.09-56.25-89.32-108-82.1c-55.38,7.73-92.7,58.01-82.3,112.51
				c8.68,45.46,47.74,78.67,97.78,77.96c24.83-0.35,46.36-10.23,64.52-27.14C427.5,362.38,428.24,360.06,430.77,360.76z"/>
		</g>
		<g>
			<path class="st0" d="M509.83,222.41c-18.27-1.87-36.42-3.72-54.56-5.6c-4.53-0.47-9.06-1.46-13.58-1.44
				c-3.97,0.02-5.5-1.78-6.66-5.12c-2-5.76-4.29-11.42-6.64-17.04c-1.14-2.73-0.4-3.34,2.36-3.03c27.18,3.03,54.37,6.03,81.56,8.93
				c2.79,0.3,3.93,0.74,3.35,4.04c-0.91,5.12-1.24,10.38-1.38,15.59C514.19,222.13,512.74,223.05,509.83,222.41z"/>
		</g>
		<g>
			<path class="st1" d="M218.94,272.12c0.52-5.54,1.01-11.08,1.57-16.62c0.52-5.1,3.89-8.35,8.01-7.82c4.29,0.55,6.9,4.36,6.37,9.28
				c-0.59,5.53-1.11,11.08-1.78,16.6c-0.55,4.52-3.59,7.01-7.85,6.64C221.3,279.85,218.51,276.35,218.94,272.12z"/>
		</g>
		<g>
			<path class="st1" d="M430.77,360.76c-2.52-0.71-3.27,1.62-4.54,2.8c-18.16,16.91-39.69,26.79-64.52,27.14
				c-50.04,0.71-89.1-32.5-97.78-77.96c-10.4-54.5,26.92-104.78,82.3-112.51c51.74-7.22,101.37,30,108,82.1
				c3.52,27.68-3.68,52.08-21.25,73.67c-1.12,1.38-3.24,2.41-2.26,4.81C430.72,360.81,430.77,360.76,430.77,360.76z M265.7,294.32
				c-0.95,51.01,41.31,92.14,91.09,92.84c53.13,0.75,95.56-41.96,95.05-92.35c-0.5-50.39-39.85-91.42-92.16-92.09
				C307.53,202.05,265.66,243.53,265.7,294.32z"/>
		</g>
		<g>
			<path class="st0" d="M265.7,294.32c-0.04-50.79,41.83-92.27,93.98-91.6c52.31,0.67,91.66,41.7,92.16,92.09
				c0.5,50.39-41.92,93.1-95.05,92.35C307.01,386.46,264.76,345.33,265.7,294.32z M358.47,383.07c48.6,0.65,89.47-38.67,90.38-86.46
				c0.94-49.18-37.6-90.61-87.38-91.84c-50.68-1.25-91.5,38.13-92.72,86.89C267.48,342.19,310.07,384.05,358.47,383.07z"/>
		</g>
		<g>
			<path class="st1" d="M358.47,383.07c-48.39,0.98-90.98-40.88-89.72-91.41c1.22-48.76,42.04-88.14,92.72-86.89
				c49.78,1.23,88.32,42.66,87.38,91.84C447.93,344.4,407.07,383.72,358.47,383.07z M358.69,379.75
				c48.78-0.33,87.64-38.89,86.74-87.18c-0.88-47.26-38.81-84.24-85.27-84.47c-49.81-0.25-88.38,38.31-88,86.47
				C272.53,342,311.2,380.06,358.69,379.75z"/>
		</g>
		<g>
			<path class="st0" d="M358.69,379.75c-47.49,0.32-86.16-37.74-86.53-85.18c-0.38-48.16,38.19-86.72,88-86.47
				c46.46,0.23,84.39,37.21,85.27,84.47C446.33,340.86,407.47,379.42,358.69,379.75z M411.9,293.94
				c0.62-28.71-22.87-54.1-53.74-54.5c-30.41-0.4-55.1,24.04-55.17,53.68c-0.08,29.46,24.26,54.08,53.58,54.18
				C387.29,347.4,411.83,323.74,411.9,293.94z"/>
		</g>
		<g>
			<path class="st1" d="M411.9,293.94c-0.06,29.8-24.6,53.46-55.34,53.36c-29.31-0.1-53.65-24.72-53.58-54.18
				c0.08-29.64,24.77-54.08,55.17-53.68C389.03,239.84,412.51,265.23,411.9,293.94z M357.23,253.8
				c-22.51,0.24-39.82,17.87-39.58,40.28c0.24,21.68,18.17,38.75,40.1,38.71c20.26-0.03,39.62-15.77,39.84-39.71
				C397.8,271.41,379.01,253.56,357.23,253.8z"/>
		</g>
		<g>
			<path class="st0" d="M357.23,253.8c21.77-0.23,40.56,17.61,40.36,39.28c-0.22,23.94-19.58,39.68-39.84,39.71
				c-21.93,0.03-39.86-17.03-40.1-38.71C317.41,271.67,334.73,254.04,357.23,253.8z M332.5,292.72
				c-0.06,14.01,11.55,25.71,25.66,25.86c13.39,0.14,25.74-11.96,25.86-25.33c0.12-13.77-11.71-25.54-25.85-25.72
				C344.47,267.36,332.55,279.06,332.5,292.72z"/>
		</g>
		<g>
			<path class="st1" d="M332.5,292.72c0.05-13.66,11.98-25.36,25.67-25.19c14.14,0.18,25.97,11.95,25.85,25.72
				c-0.12,13.37-12.47,25.47-25.86,25.33C344.05,318.43,332.44,306.74,332.5,292.72z M340.73,293.08
				c0.06,9.73,7.69,17.43,17.22,17.38c10.07-0.05,17.82-7.64,17.84-17.45c0.02-9.69-7.91-17.34-17.95-17.33
				C348.14,275.69,340.67,283.28,340.73,293.08z"/>
		</g>
		<g>
			<path class="st0" d="M340.73,293.08c-0.06-9.8,7.41-17.39,17.1-17.4c10.04-0.01,17.97,7.65,17.95,17.33
				c-0.02,9.81-7.77,17.39-17.84,17.45C348.42,310.51,340.78,302.81,340.73,293.08z"/>
		</g>
		<g>
			<path class="st3" d="M142.72,450.94v-10.38h2.97c0.69,0,1.28,0.12,1.79,0.35c0.51,0.23,0.9,0.57,1.19,1.02
				c0.28,0.45,0.42,0.99,0.42,1.62c0,0.63-0.14,1.18-0.42,1.64c-0.28,0.47-0.68,0.83-1.19,1.09c-0.51,0.26-1.11,0.38-1.79,0.38
				h-1.68v4.27H142.72z M144.01,445.62h1.33c0.47,0,0.89-0.08,1.25-0.24c0.36-0.16,0.65-0.39,0.85-0.69c0.21-0.3,0.31-0.67,0.31-1.1
				c0-0.44-0.1-0.8-0.31-1.1c-0.21-0.29-0.49-0.52-0.85-0.67c-0.36-0.15-0.78-0.23-1.25-0.23h-1.33V445.62z"/>
			<path class="st3" d="M151.51,450.94v-10.38h1.29v4.62h5.19v-4.62h1.29v10.38h-1.29v-4.64h-5.19v4.64H151.51z"/>
			<path class="st3" d="M167.13,451.14c-0.73,0-1.42-0.14-2.06-0.42c-0.64-0.28-1.2-0.66-1.68-1.15c-0.48-0.49-0.86-1.07-1.13-1.72
				c-0.27-0.65-0.41-1.35-0.41-2.1c0-0.75,0.14-1.45,0.41-2.1c0.27-0.65,0.65-1.22,1.13-1.71c0.48-0.49,1.04-0.88,1.68-1.15
				c0.64-0.28,1.33-0.42,2.06-0.42c0.73,0,1.42,0.14,2.06,0.42c0.64,0.28,1.2,0.66,1.68,1.15c0.48,0.49,0.86,1.06,1.13,1.71
				c0.27,0.65,0.41,1.35,0.41,2.1c0,0.75-0.14,1.45-0.41,2.1c-0.27,0.65-0.65,1.22-1.13,1.72c-0.48,0.49-1.04,0.88-1.68,1.15
				C168.55,451,167.87,451.14,167.13,451.14z M167.13,449.91c0.55,0,1.06-0.1,1.53-0.31c0.47-0.21,0.89-0.5,1.24-0.88
				c0.35-0.38,0.63-0.81,0.83-1.32c0.2-0.51,0.3-1.05,0.3-1.64c0-0.59-0.1-1.13-0.3-1.64c-0.2-0.51-0.47-0.95-0.83-1.32
				c-0.35-0.38-0.77-0.67-1.24-0.88c-0.47-0.21-0.98-0.31-1.53-0.31c-0.55,0-1.06,0.11-1.53,0.31c-0.47,0.21-0.89,0.5-1.24,0.88
				c-0.35,0.38-0.63,0.81-0.83,1.32c-0.2,0.51-0.3,1.05-0.3,1.64c0,0.59,0.1,1.13,0.3,1.64c0.2,0.51,0.47,0.95,0.83,1.32
				c0.35,0.38,0.77,0.67,1.24,0.88C166.07,449.8,166.58,449.91,167.13,449.91z"/>
			<path class="st3" d="M176.57,450.94v-9.24h-3.04v-1.14h7.37v1.14h-3.04v9.24H176.57z"/>
			<path class="st3" d="M187.3,451.14c-0.73,0-1.42-0.14-2.06-0.42c-0.64-0.28-1.2-0.66-1.68-1.15c-0.48-0.49-0.86-1.07-1.13-1.72
				c-0.27-0.65-0.41-1.35-0.41-2.1c0-0.75,0.14-1.45,0.41-2.1c0.27-0.65,0.65-1.22,1.13-1.71c0.48-0.49,1.04-0.88,1.68-1.15
				c0.64-0.28,1.33-0.42,2.06-0.42c0.73,0,1.42,0.14,2.06,0.42c0.64,0.28,1.2,0.66,1.68,1.15c0.48,0.49,0.86,1.06,1.13,1.71
				c0.27,0.65,0.41,1.35,0.41,2.1c0,0.75-0.14,1.45-0.41,2.1c-0.27,0.65-0.65,1.22-1.13,1.72c-0.48,0.49-1.04,0.88-1.68,1.15
				C188.72,451,188.03,451.14,187.3,451.14z M187.3,449.91c0.55,0,1.06-0.1,1.53-0.31c0.47-0.21,0.89-0.5,1.24-0.88
				c0.35-0.38,0.63-0.81,0.83-1.32c0.2-0.51,0.3-1.05,0.3-1.64c0-0.59-0.1-1.13-0.3-1.64c-0.2-0.51-0.47-0.95-0.83-1.32
				c-0.35-0.38-0.77-0.67-1.24-0.88c-0.47-0.21-0.98-0.31-1.53-0.31c-0.55,0-1.06,0.11-1.53,0.31c-0.47,0.21-0.89,0.5-1.24,0.88
				c-0.35,0.38-0.63,0.81-0.83,1.32c-0.2,0.51-0.3,1.05-0.3,1.64c0,0.59,0.1,1.13,0.3,1.64c0.2,0.51,0.47,0.95,0.83,1.32
				c0.35,0.38,0.77,0.67,1.24,0.88C186.24,449.8,186.75,449.91,187.3,449.91z"/>
			<path class="st3" d="M199.65,451.14c-0.72,0-1.4-0.14-2.02-0.41c-0.62-0.28-1.17-0.66-1.64-1.15c-0.47-0.49-0.83-1.06-1.1-1.71
				c-0.26-0.65-0.39-1.36-0.39-2.11c0-0.7,0.12-1.38,0.36-2.03s0.58-1.22,1.04-1.72c0.45-0.5,1-0.9,1.66-1.2
				c0.65-0.29,1.39-0.44,2.21-0.44c0.52,0,1.01,0.06,1.49,0.18c0.48,0.12,0.92,0.3,1.33,0.53c0.41,0.23,0.78,0.5,1.09,0.81
				l-0.64,0.98c-0.39-0.41-0.87-0.75-1.45-0.99c-0.58-0.25-1.19-0.37-1.82-0.37c-0.61,0-1.16,0.11-1.64,0.33
				c-0.48,0.22-0.88,0.53-1.21,0.92c-0.33,0.39-0.58,0.84-0.75,1.34c-0.17,0.5-0.26,1.04-0.26,1.6c0,0.61,0.1,1.18,0.29,1.7
				c0.19,0.52,0.46,0.97,0.81,1.36c0.35,0.39,0.75,0.69,1.21,0.9c0.46,0.21,0.96,0.32,1.49,0.32c0.43,0,0.85-0.07,1.26-0.21
				c0.41-0.14,0.78-0.35,1.11-0.61c0.33-0.27,0.59-0.58,0.78-0.95c0.19-0.37,0.29-0.78,0.29-1.23v-0.3h-3.53v-1.01h4.86v1.12
				c0,0.7-0.14,1.33-0.41,1.87c-0.28,0.54-0.64,1-1.11,1.37c-0.46,0.37-0.98,0.65-1.55,0.85
				C200.81,451.04,200.23,451.14,199.65,451.14z"/>
			<path class="st3" d="M206.97,450.94v-10.38h2.97c0.7,0,1.3,0.12,1.81,0.36c0.51,0.24,0.9,0.58,1.18,1.03
				c0.28,0.45,0.42,0.98,0.42,1.61c0,0.55-0.11,1.03-0.32,1.45c-0.22,0.42-0.52,0.77-0.92,1.04c-0.4,0.27-0.88,0.45-1.43,0.53
				l3.47,4.37h-1.64l-3.25-4.23h-0.99v4.23H206.97z M208.26,445.62h1.33c0.5,0,0.93-0.08,1.29-0.25c0.36-0.16,0.64-0.4,0.83-0.7
				c0.19-0.3,0.29-0.67,0.29-1.09c0-0.62-0.21-1.11-0.64-1.46c-0.43-0.35-1.02-0.53-1.78-0.53h-1.33V445.62z"/>
			<path class="st3" d="M214.95,450.94l4.15-10.38h1.2l4.15,10.38h-1.39l-1.16-3.03h-4.39l-1.17,3.03H214.95z M217.95,446.79h3.51
				l-1.76-4.52L217.95,446.79z"/>
			<path class="st3" d="M226.6,450.94v-10.38h2.97c0.69,0,1.28,0.12,1.79,0.35c0.51,0.23,0.9,0.57,1.19,1.02
				c0.28,0.45,0.42,0.99,0.42,1.62c0,0.63-0.14,1.18-0.42,1.64c-0.28,0.47-0.68,0.83-1.19,1.09c-0.51,0.26-1.11,0.38-1.79,0.38
				h-1.68v4.27H226.6z M227.89,445.62h1.33c0.47,0,0.89-0.08,1.25-0.24c0.36-0.16,0.65-0.39,0.85-0.69c0.21-0.3,0.31-0.67,0.31-1.1
				c0-0.44-0.1-0.8-0.31-1.1c-0.21-0.29-0.49-0.52-0.85-0.67c-0.36-0.15-0.78-0.23-1.25-0.23h-1.33V445.62z"/>
			<path class="st3" d="M235.39,450.94v-10.38h1.29v4.62h5.19v-4.62h1.29v10.38h-1.29v-4.64h-5.19v4.64H235.39z"/>
			<path class="st3" d="M247.73,450.94v-4.53l-3.67-5.84h1.56l2.75,4.51l2.76-4.51h1.56l-3.67,5.84v4.53H247.73z"/>
		</g>
	</g>
</g>
</svg>
